<svg xmlns="http://www.w3.org/2000/svg" xmlns:xlink="http://www.w3.org/1999/xlink" viewBox="0 0 159.55 129.83"><defs><style>.cls-1{fill:url(#linear-gradient);}.cls-2{fill:url(#linear-gradient-2);}.cls-3{fill:url(#linear-gradient-3);}.cls-4{fill:url(#linear-gradient-4);}.cls-5{fill:url(#linear-gradient-5);}.cls-6{fill:url(#linear-gradient-6);}.cls-7{fill:url(#linear-gradient-7);}.cls-8{fill:url(#linear-gradient-8);}.cls-9{fill:url(#linear-gradient-9);}.cls-10{fill:url(#linear-gradient-10);}.cls-11{fill:url(#linear-gradient-11);}.cls-12{fill:url(#linear-gradient-12);}.cls-13{fill:url(#linear-gradient-13);}.cls-14{fill:url(#linear-gradient-14);}.cls-15{fill:url(#linear-gradient-15);}.cls-16{fill:url(#linear-gradient-16);}</style><linearGradient id="linear-gradient" x1="-7.7" y1="73.59" x2="97.4" y2="25.13" gradientUnits="userSpaceOnUse"><stop offset="0" stop-color="#29abe2"/><stop offset="1" stop-color="#0071bc"/></linearGradient><linearGradient id="linear-gradient-2" x1="-18.31" y1="50.59" x2="86.79" y2="2.13" xlink:href="#linear-gradient"/><linearGradient id="linear-gradient-3" x1="-9.99" y1="68.62" x2="95.1" y2="20.16" xlink:href="#linear-gradient"/><linearGradient id="linear-gradient-4" x1="-18.3" y1="50.61" x2="86.8" y2="2.16" xlink:href="#linear-gradient"/><linearGradient id="linear-gradient-5" x1="8.36" y1="108.44" x2="113.46" y2="59.98" xlink:href="#linear-gradient"/><linearGradient id="linear-gradient-6" x1="12.55" y1="117.52" x2="117.65" y2="69.07" xlink:href="#linear-gradient"/><linearGradient id="linear-gradient-7" x1="12.55" y1="117.52" x2="117.65" y2="69.07" xlink:href="#linear-gradient"/><linearGradient id="linear-gradient-8" x1="9.37" y1="110.61" x2="114.47" y2="62.16" xlink:href="#linear-gradient"/><linearGradient id="linear-gradient-9" x1="5.87" y1="103.02" x2="110.96" y2="54.57" xlink:href="#linear-gradient"/><linearGradient id="linear-gradient-10" x1="12.35" y1="117.09" x2="117.45" y2="68.64" xlink:href="#linear-gradient"/><linearGradient id="linear-gradient-11" x1="7.25" y1="106.03" x2="112.35" y2="57.57" xlink:href="#linear-gradient"/><linearGradient id="linear-gradient-12" x1="12.35" y1="117.09" x2="117.45" y2="68.64" xlink:href="#linear-gradient"/><linearGradient id="linear-gradient-13" x1="-18.33" y1="50.54" x2="86.77" y2="2.09" xlink:href="#linear-gradient"/><linearGradient id="linear-gradient-14" x1="12.64" y1="117.7" x2="117.73" y2="69.25" xlink:href="#linear-gradient"/><linearGradient id="linear-gradient-15" x1="12.36" y1="117.1" x2="117.45" y2="68.64" xlink:href="#linear-gradient"/><linearGradient id="linear-gradient-16" x1="-2.59" y1="84.69" x2="102.51" y2="36.24" xlink:href="#linear-gradient"/></defs><title>Asset 7</title><g id="Layer_2" data-name="Layer 2"><g id="Layer_1-2" data-name="Layer 1"><path class="cls-1" d="M55.76,41.71l-2.87-1a26.36,26.36,0,0,1-14,13l.78,2.95A29.42,29.42,0,0,0,55.76,41.71Z"/><path class="cls-2" d="M29.27,55.51A26.26,26.26,0,1,1,54.88,35l2.89,1a29.62,29.62,0,0,0,.77-6.71A29.27,29.27,0,1,0,29.27,58.54a28.85,28.85,0,0,0,4.49-.34l-.79-3A26.53,26.53,0,0,1,29.27,55.51Z"/><path class="cls-3" d="M37.27,47.84l.61,2.28A22.77,22.77,0,0,0,49.39,39.47l-2.23-.79A20.39,20.39,0,0,1,37.27,47.84Z"/><path class="cls-4" d="M29.27,49.49A20.23,20.23,0,1,1,49.15,33l2.23.79A22.48,22.48,0,1,0,32,51.66l-.61-2.28C30.7,49.45,30,49.49,29.27,49.49Z"/><path class="cls-5" d="M104.42,58.82l-2.9-1a29.68,29.68,0,0,0-.51,5.44,29.3,29.3,0,0,0,1.55,9.42l2.78-1.25a26.27,26.27,0,0,1-1.3-8.17A25.85,25.85,0,0,1,104.42,58.82Z"/><path class="cls-6" d="M130.28,34a29.32,29.32,0,0,0-27,18l2.87,1a26.24,26.24,0,1,1,1.76,23.91l-2.78,1.26A29.27,29.27,0,1,0,130.28,34Z"/><path class="cls-7" d="M130.28,43a20.22,20.22,0,1,1-16.85,31.38l-2.15,1a22.55,22.55,0,1,0-1.67-21.16l2.21.78A20.25,20.25,0,0,1,130.28,43Z"/><path class="cls-8" d="M108.72,69.88l2.15-1a20.39,20.39,0,0,1-.81-5.67,18.78,18.78,0,0,1,.15-2.38L108,60.07a22.21,22.21,0,0,0-.22,3.17A22.75,22.75,0,0,0,108.72,69.88Z"/><path class="cls-9" d="M48.23,71.28a30.14,30.14,0,0,0-4.59.36l.78,3a26.7,26.7,0,0,1,3.81-.27A26.23,26.23,0,0,1,70.72,87.06L73.5,85.8A29.28,29.28,0,0,0,48.23,71.28Z"/><path class="cls-10" d="M74.47,100.55A26.24,26.24,0,1,1,38.56,76.16l-.78-3A29.27,29.27,0,1,0,77.5,100.55,29,29,0,0,0,76,91.33l-2.78,1.25A26.31,26.31,0,0,1,74.47,100.55Z"/><path class="cls-11" d="M48.23,80.34a20.21,20.21,0,0,1,17,9.22l2.15-1a22.55,22.55,0,0,0-22-10.41L46,80.46A20.73,20.73,0,0,1,48.23,80.34Z"/><path class="cls-12" d="M68.45,100.55A20.22,20.22,0,1,1,40.13,82l-.61-2.28A22.55,22.55,0,1,0,69.84,94.11l-2.15,1A20.18,20.18,0,0,1,68.45,100.55Z"/><path class="cls-13" d="M27.21,27.05a3,3,0,0,1,2.06-.81,2.84,2.84,0,0,1,1,.17l14,4.85a15.49,15.49,0,0,0,.14-2.06A15.17,15.17,0,1,0,29.2,44.36c.31,0,.63,0,.94,0l-3.8-14.28A3,3,0,0,1,27.21,27.05Z"/><path class="cls-14" d="M130.43,48.23a15.16,15.16,0,0,0-13.53,8.31L131,61.44a3,3,0,0,1,.24,5.64l-12.74,5.64a15.17,15.17,0,1,0,12-24.49Z"/><path class="cls-15" d="M48.23,103.59a3.14,3.14,0,0,1-1.31-.3,3,3,0,0,1-1.62-2L41.48,87A15.17,15.17,0,1,0,63.4,100.55a15.86,15.86,0,0,0-.35-3.25l-13.59,6A3.05,3.05,0,0,1,48.23,103.59Z"/><path class="cls-16" d="M48.23,102.07a1.55,1.55,0,0,1-.66-.15,1.53,1.53,0,0,1-.81-1L27.81,29.66a1.51,1.51,0,0,1,2-1.82l100.71,35a1.52,1.52,0,0,1,1,1.37,1.5,1.5,0,0,1-.9,1.45L48.84,101.94A1.42,1.42,0,0,1,48.23,102.07ZM31.47,31.64,49.24,98.45l76.61-34Z"/></g></g></svg>