<svg xmlns="http://www.w3.org/2000/svg" xmlns:xlink="http://www.w3.org/1999/xlink" viewBox="0 0 191.88 129.77"><defs><style>.cls-1{fill:url(#linear-gradient);}.cls-2{fill:url(#linear-gradient-2);}.cls-3{fill:url(#linear-gradient-3);}.cls-4{fill:url(#linear-gradient-4);}.cls-5{fill:url(#linear-gradient-5);}.cls-6{fill:url(#linear-gradient-6);}.cls-7{fill:url(#linear-gradient-7);}.cls-8{fill:url(#linear-gradient-8);}.cls-9{fill:url(#linear-gradient-9);}.cls-10{fill:url(#linear-gradient-10);}.cls-11{fill:url(#linear-gradient-11);}.cls-12{fill:url(#linear-gradient-13);}.cls-13{fill:url(#linear-gradient-15);}.cls-14{fill:url(#linear-gradient-16);}.cls-15{fill:url(#linear-gradient-17);}.cls-16{fill:url(#linear-gradient-18);}.cls-17{fill:url(#linear-gradient-19);}.cls-18{fill:url(#linear-gradient-21);}.cls-19{fill:url(#linear-gradient-23);}.cls-20{fill:url(#linear-gradient-24);}.cls-21{fill:url(#linear-gradient-25);}.cls-22{fill:url(#linear-gradient-26);}.cls-23{fill:url(#linear-gradient-29);}.cls-24{fill:url(#linear-gradient-30);}.cls-25{fill:url(#linear-gradient-33);}.cls-26{fill:url(#linear-gradient-34);}.cls-27{fill:url(#linear-gradient-37);}.cls-28{fill:url(#linear-gradient-41);}.cls-29{fill:url(#linear-gradient-42);}.cls-30{fill:url(#linear-gradient-45);}.cls-31{fill:url(#linear-gradient-49);}.cls-32{fill:url(#linear-gradient-53);}.cls-33{fill:url(#linear-gradient-54);}.cls-34{fill:url(#linear-gradient-57);}.cls-35{fill:url(#linear-gradient-58);}.cls-36{fill:url(#linear-gradient-59);}.cls-37{fill:url(#linear-gradient-60);}.cls-38{fill:url(#linear-gradient-61);}.cls-39{fill:url(#linear-gradient-62);}.cls-40{fill:url(#linear-gradient-63);}.cls-41{fill:url(#linear-gradient-64);}.cls-42{fill:url(#linear-gradient-65);}.cls-43{fill:url(#linear-gradient-66);}.cls-44{fill:url(#linear-gradient-67);}.cls-45{fill:url(#linear-gradient-68);}.cls-46{fill:url(#linear-gradient-69);}.cls-47{fill:url(#linear-gradient-70);}.cls-48{fill:url(#linear-gradient-71);}.cls-49{fill:url(#linear-gradient-72);}.cls-50{fill:url(#linear-gradient-73);}.cls-51{fill:url(#linear-gradient-74);}.cls-52{fill:url(#linear-gradient-75);}</style><linearGradient id="linear-gradient" x1="-59.27" y1="117.56" x2="156.19" y2="-53.82" gradientUnits="userSpaceOnUse"><stop offset="0" stop-color="#29abe2"/><stop offset="1" stop-color="#0071bc"/></linearGradient><linearGradient id="linear-gradient-2" x1="-59.08" y1="117.8" x2="156.38" y2="-53.59" xlink:href="#linear-gradient"/><linearGradient id="linear-gradient-3" x1="-26.74" y1="158.46" x2="188.72" y2="-12.93" xlink:href="#linear-gradient"/><linearGradient id="linear-gradient-4" x1="-26.92" y1="158.22" x2="188.54" y2="-13.16" xlink:href="#linear-gradient"/><linearGradient id="linear-gradient-5" x1="16.83" y1="213.23" x2="232.29" y2="41.84" xlink:href="#linear-gradient"/><linearGradient id="linear-gradient-6" x1="16.64" y1="212.99" x2="232.1" y2="41.61" xlink:href="#linear-gradient"/><linearGradient id="linear-gradient-7" x1="-15.7" y1="172.33" x2="199.76" y2="0.95" xlink:href="#linear-gradient"/><linearGradient id="linear-gradient-8" x1="-15.51" y1="172.57" x2="199.95" y2="1.18" xlink:href="#linear-gradient"/><linearGradient id="linear-gradient-9" x1="7.67" y1="201.71" x2="223.13" y2="30.33" xlink:href="#linear-gradient"/><linearGradient id="linear-gradient-10" x1="7.67" y1="201.71" x2="223.13" y2="30.33" xlink:href="#linear-gradient"/><linearGradient id="linear-gradient-11" x1="-14.11" y1="174.33" x2="201.35" y2="2.94" xlink:href="#linear-gradient"/><linearGradient id="linear-gradient-13" x1="-41.42" y1="140" x2="174.04" y2="-31.39" xlink:href="#linear-gradient"/><linearGradient id="linear-gradient-15" x1="13.21" y1="208.68" x2="228.67" y2="37.29" xlink:href="#linear-gradient"/><linearGradient id="linear-gradient-16" x1="13.03" y1="208.45" x2="228.49" y2="37.06" xlink:href="#linear-gradient"/><linearGradient id="linear-gradient-17" x1="-46.19" y1="134.01" x2="169.27" y2="-37.38" xlink:href="#linear-gradient"/><linearGradient id="linear-gradient-18" x1="-46" y1="134.24" x2="169.46" y2="-37.14" xlink:href="#linear-gradient"/><linearGradient id="linear-gradient-19" x1="-35.9" y1="146.94" x2="179.56" y2="-24.44" xlink:href="#linear-gradient"/><linearGradient id="linear-gradient-21" x1="-19.64" y1="167.38" x2="195.82" y2="-4" xlink:href="#linear-gradient"/><linearGradient id="linear-gradient-23" x1="2.15" y1="194.77" x2="217.61" y2="23.38" xlink:href="#linear-gradient"/><linearGradient id="linear-gradient-24" x1="2.15" y1="194.77" x2="217.61" y2="23.38" xlink:href="#linear-gradient"/><linearGradient id="linear-gradient-25" x1="-43.66" y1="137.18" x2="171.8" y2="-34.21" xlink:href="#linear-gradient"/><linearGradient id="linear-gradient-26" x1="-43.66" y1="137.18" x2="171.8" y2="-34.21" xlink:href="#linear-gradient"/><linearGradient id="linear-gradient-29" x1="-33.65" y1="149.76" x2="181.8" y2="-21.63" xlink:href="#linear-gradient"/><linearGradient id="linear-gradient-30" x1="-33.65" y1="149.76" x2="181.8" y2="-21.63" xlink:href="#linear-gradient"/><linearGradient id="linear-gradient-33" x1="-38.14" y1="144.12" x2="177.32" y2="-27.26" xlink:href="#linear-gradient"/><linearGradient id="linear-gradient-34" x1="-38.14" y1="144.12" x2="177.32" y2="-27.26" xlink:href="#linear-gradient"/><linearGradient id="linear-gradient-37" x1="-39.18" y1="142.82" x2="176.28" y2="-28.57" xlink:href="#linear-gradient"/><linearGradient id="linear-gradient-41" x1="5.43" y1="198.89" x2="220.89" y2="27.51" xlink:href="#linear-gradient"/><linearGradient id="linear-gradient-42" x1="5.43" y1="198.89" x2="220.89" y2="27.51" xlink:href="#linear-gradient"/><linearGradient id="linear-gradient-45" x1="4.39" y1="197.59" x2="219.85" y2="26.2" xlink:href="#linear-gradient"/><linearGradient id="linear-gradient-49" x1="9.91" y1="204.53" x2="225.37" y2="33.14" xlink:href="#linear-gradient"/><linearGradient id="linear-gradient-53" x1="-0.1" y1="191.95" x2="215.36" y2="20.56" xlink:href="#linear-gradient"/><linearGradient id="linear-gradient-54" x1="-0.1" y1="191.95" x2="215.36" y2="20.56" xlink:href="#linear-gradient"/><linearGradient id="linear-gradient-57" x1="-68.51" y1="105.95" x2="146.95" y2="-65.44" xlink:href="#linear-gradient"/><linearGradient id="linear-gradient-58" x1="-68.71" y1="105.7" x2="146.75" y2="-65.69" xlink:href="#linear-gradient"/><linearGradient id="linear-gradient-59" x1="-9.9" y1="179.63" x2="205.56" y2="8.24" xlink:href="#linear-gradient"/><linearGradient id="linear-gradient-60" x1="-9.9" y1="179.63" x2="205.56" y2="8.24" xlink:href="#linear-gradient"/><linearGradient id="linear-gradient-61" x1="-46.65" y1="133.42" x2="168.81" y2="-37.97" xlink:href="#linear-gradient"/><linearGradient id="linear-gradient-62" x1="-46.84" y1="133.19" x2="168.62" y2="-38.2" xlink:href="#linear-gradient"/><linearGradient id="linear-gradient-63" x1="-55.39" y1="122.44" x2="160.07" y2="-48.95" xlink:href="#linear-gradient"/><linearGradient id="linear-gradient-64" x1="-55.39" y1="122.44" x2="160.07" y2="-48.95" xlink:href="#linear-gradient"/><linearGradient id="linear-gradient-65" x1="5.45" y1="198.93" x2="220.91" y2="27.54" xlink:href="#linear-gradient"/><linearGradient id="linear-gradient-66" x1="5.45" y1="198.93" x2="220.91" y2="27.54" xlink:href="#linear-gradient"/><linearGradient id="linear-gradient-67" x1="-37.4" y1="145.05" x2="178.06" y2="-26.34" xlink:href="#linear-gradient"/><linearGradient id="linear-gradient-68" x1="-37.22" y1="145.29" x2="178.24" y2="-26.1" xlink:href="#linear-gradient"/><linearGradient id="linear-gradient-69" x1="-34.63" y1="148.53" x2="180.83" y2="-22.85" xlink:href="#linear-gradient"/><linearGradient id="linear-gradient-70" x1="-34.63" y1="148.53" x2="180.83" y2="-22.85" xlink:href="#linear-gradient"/><linearGradient id="linear-gradient-71" x1="-24.86" y1="160.82" x2="190.6" y2="-10.56" xlink:href="#linear-gradient"/><linearGradient id="linear-gradient-72" x1="-25.04" y1="160.59" x2="190.42" y2="-10.8" xlink:href="#linear-gradient"/><linearGradient id="linear-gradient-73" x1="-15.82" y1="172.18" x2="199.64" y2="0.79" xlink:href="#linear-gradient"/><linearGradient id="linear-gradient-74" x1="-15.64" y1="172.41" x2="199.82" y2="1.03" xlink:href="#linear-gradient"/><linearGradient id="linear-gradient-75" x1="-13.79" y1="174.73" x2="201.67" y2="3.34" xlink:href="#linear-gradient"/></defs><title>Asset 8</title><g id="Layer_2" data-name="Layer 2"><g id="Layer_1-2" data-name="Layer 1"><path class="cls-1" d="M33.35,4.3h8.74V75.63h2.84v-67a7.2,7.2,0,0,0-7.21-7.2h0a7.2,7.2,0,0,0-7.2,7.2v67h2.83Z"/><path class="cls-2" d="M46.39,77.1H40.62V5.77h-5.8V77.1H29.05V8.67a8.67,8.67,0,0,1,17.34,0Z"/><path class="cls-3" d="M37.72,125.46h0a4.37,4.37,0,0,1-4.37-4.37V89.8H30.52v31.29a7.2,7.2,0,0,0,7.2,7.21h0a7.21,7.21,0,0,0,7.21-7.21V89.8H42.09v31.29A4.36,4.36,0,0,1,37.72,125.46Z"/><path class="cls-4" d="M37.72,129.77a8.69,8.69,0,0,1-8.67-8.68V88.33h5.77v32.76a2.9,2.9,0,0,0,2.9,2.9h0a2.9,2.9,0,0,0,2.9-2.9V88.33h5.77v32.76A8.69,8.69,0,0,1,37.72,129.77Z"/><path class="cls-5" d="M150.14,125.46h0a4.37,4.37,0,0,1-4.37-4.37V89.8h-2.83v31.29a7.2,7.2,0,0,0,7.2,7.21h0a7.21,7.21,0,0,0,7.21-7.21V89.8h-2.84v31.29A4.36,4.36,0,0,1,150.14,125.46Z"/><path class="cls-6" d="M150.14,129.77a8.69,8.69,0,0,1-8.67-8.68V88.33h5.77v32.76a2.9,2.9,0,0,0,5.8,0V88.33h5.77v32.76A8.69,8.69,0,0,1,150.14,129.77Z"/><path class="cls-7" d="M145.77,4.3h8.74V75.63h2.84v-67a7.2,7.2,0,0,0-7.21-7.2h0a7.2,7.2,0,0,0-7.2,7.2v67h2.83Z"/><path class="cls-8" d="M158.81,77.1H153V5.77h-5.8V77.1h-5.77V8.67a8.67,8.67,0,0,1,17.34,0Z"/><rect class="cls-9" x="145.77" y="86.97" width="8.74" height="2.83"/><rect class="cls-10" x="144.3" y="85.5" width="11.68" height="5.77"/><rect class="cls-11" x="44.93" y="86.97" width="98.01" height="2.83"/><rect class="cls-11" x="43.46" y="85.5" width="100.95" height="5.77"/><rect class="cls-12" x="33.35" y="75.63" width="8.74" height="2.83"/><rect class="cls-12" x="31.88" y="74.16" width="11.68" height="5.77"/><path class="cls-13" d="M183.33,75.63h-26v2.83h26a4.26,4.26,0,0,1,4.25,4.25h0A4.26,4.26,0,0,1,183.33,87h-26V89.8h26a7.08,7.08,0,0,0,7.08-7.09h0A7.08,7.08,0,0,0,183.33,75.63Z"/><path class="cls-14" d="M183.33,91.27H155.88V85.5h27.45a2.79,2.79,0,0,0,0-5.57H155.88V74.16h27.45a8.56,8.56,0,0,1,0,17.11Z"/><path class="cls-15" d="M4.3,82.71h0a4.26,4.26,0,0,1,4.25-4.25h22V75.63h-22a7.08,7.08,0,0,0-7.08,7.08h0A7.08,7.08,0,0,0,8.55,89.8h22V87h-22A4.26,4.26,0,0,1,4.3,82.71Z"/><path class="cls-16" d="M32,91.27H8.55a8.56,8.56,0,0,1,0-17.11H32v5.77H8.55a2.79,2.79,0,0,0,0,5.57H32Z"/><rect class="cls-17" x="33.35" y="86.97" width="8.74" height="2.83"/><rect class="cls-17" x="31.88" y="85.5" width="11.68" height="5.77"/><rect class="cls-18" x="44.93" y="75.63" width="98.01" height="2.83"/><rect class="cls-18" x="43.46" y="74.16" width="100.95" height="5.77"/><rect class="cls-19" x="145.77" y="75.63" width="8.74" height="2.83"/><rect class="cls-20" x="144.3" y="74.16" width="11.68" height="5.77"/><rect class="cls-21" x="30.52" y="75.63" width="2.83" height="2.83"/><rect class="cls-22" x="29.05" y="74.16" width="5.77" height="5.77"/><rect class="cls-21" x="30.52" y="75.63" width="2.83" height="2.83"/><rect class="cls-22" x="29.05" y="74.16" width="5.77" height="5.77"/><rect class="cls-23" x="42.09" y="86.97" width="2.83" height="2.83"/><rect class="cls-24" x="40.62" y="85.5" width="5.77" height="5.77"/><rect class="cls-23" x="42.09" y="86.97" width="2.83" height="2.83"/><rect class="cls-24" x="40.62" y="85.5" width="5.77" height="5.77"/><rect class="cls-25" x="30.52" y="86.97" width="2.83" height="2.83"/><rect class="cls-26" x="29.05" y="85.5" width="5.77" height="5.77"/><rect class="cls-25" x="30.52" y="86.97" width="2.83" height="2.83"/><rect class="cls-26" x="29.05" y="85.5" width="5.77" height="5.77"/><rect class="cls-27" x="42.09" y="75.63" width="2.83" height="2.83"/><rect class="cls-27" x="40.62" y="74.16" width="5.77" height="5.77"/><rect class="cls-27" x="42.09" y="75.63" width="2.83" height="2.83"/><rect class="cls-27" x="40.62" y="74.16" width="5.77" height="5.77"/><rect class="cls-28" x="142.94" y="86.97" width="2.83" height="2.83"/><rect class="cls-29" x="141.47" y="85.5" width="5.77" height="5.77"/><rect class="cls-28" x="142.94" y="86.97" width="2.83" height="2.83"/><rect class="cls-29" x="141.47" y="85.5" width="5.77" height="5.77"/><rect class="cls-30" x="154.51" y="75.63" width="2.83" height="2.83"/><rect class="cls-30" x="153.04" y="74.16" width="5.77" height="5.77"/><rect class="cls-30" x="154.51" y="75.63" width="2.83" height="2.83"/><rect class="cls-30" x="153.04" y="74.16" width="5.77" height="5.77"/><rect class="cls-31" x="154.51" y="86.97" width="2.83" height="2.83"/><rect class="cls-31" x="153.04" y="85.5" width="5.77" height="5.77"/><rect class="cls-31" x="154.51" y="86.97" width="2.83" height="2.83"/><rect class="cls-31" x="153.04" y="85.5" width="5.77" height="5.77"/><rect class="cls-32" x="142.94" y="75.63" width="2.83" height="2.83"/><rect class="cls-33" x="141.47" y="74.16" width="5.77" height="5.77"/><rect class="cls-32" x="142.94" y="75.63" width="2.83" height="2.83"/><rect class="cls-33" x="141.47" y="74.16" width="5.77" height="5.77"/><path class="cls-34" d="M3.12,63.23h0a1.41,1.41,0,0,1,1.22-1.39c8.79-1.17,15.31-15,19.29-26.59a194,194,0,0,0,6.91-27.4h0a2.78,2.78,0,0,1,2.3,3.26C30.73,22.29,22,62.28,4.74,64.65A1.44,1.44,0,0,1,3.12,63.23Z"/><path class="cls-35" d="M4.55,66.13a2.88,2.88,0,0,1-.41-5.74c6.31-.85,12.74-9.94,18.1-25.62A190.76,190.76,0,0,0,29.09,7.61l.23-1.45,1.45.24a4.26,4.26,0,0,1,3.51,5C32,23.59,23.06,63.62,4.94,66.1A2.56,2.56,0,0,1,4.55,66.13Z"/><path class="cls-36" d="M184.8,63.23h0a1.4,1.4,0,0,0-1.21-1.39c-8.79-1.17-15.31-15-19.29-26.59a192.37,192.37,0,0,1-6.91-27.4h0a2.78,2.78,0,0,0-2.3,3.26c2.11,11.18,10.82,51.17,28.1,53.54A1.43,1.43,0,0,0,184.8,63.23Z"/><path class="cls-37" d="M183.38,66.13a2.56,2.56,0,0,1-.39,0c-18.13-2.48-27-42.51-29.34-54.72a4.26,4.26,0,0,1,3.5-5l1.45-.24.24,1.45a191.44,191.44,0,0,0,6.85,27.16c5.36,15.68,11.78,24.77,18.09,25.62a2.88,2.88,0,0,1,2.49,2.84,2.89,2.89,0,0,1-2.89,2.9Z"/><path class="cls-38" d="M95.47,60.33c-26.95,0-40-14.48-46.17-26.63a67.11,67.11,0,0,1-7-26.48h0a3,3,0,0,1,3,2.68,65.86,65.86,0,0,0,6.51,22.6c8.48,16.59,23.15,25,43.6,25,14.4,0,25.78-4.27,33.81-12.68C140.44,33.14,142.2,16.48,142.44,10a3,3,0,0,1,2.86-2.86h0c0,1,.92,24.07-14,39.65C122.74,55.77,110.67,60.33,95.47,60.33Z"/><path class="cls-39" d="M95.47,61.8C67.78,61.8,54.37,46.88,48,34.36A68.57,68.57,0,0,1,40.86,7.24l0-1.46,1.47,0a4.4,4.4,0,0,1,4.52,4,64.44,64.44,0,0,0,6.36,22.08C61.39,47.89,75.62,56,95.47,56c14,0,25-4.11,32.75-12.22C139,32.52,140.73,16.36,141,9.94a4.42,4.42,0,0,1,4.25-4.28l1.47-.07.07,1.47c0,1,1,24.66-14.38,40.73C123.52,57.09,111.09,61.8,95.47,61.8Z"/><rect class="cls-40" x="12.1" y="58.44" width="2.83" height="18.37"/><rect class="cls-41" x="10.63" y="56.97" width="5.77" height="21.31"/><rect class="cls-42" x="170.81" y="55.73" width="2.83" height="21.08"/><rect class="cls-43" x="169.34" y="54.26" width="5.77" height="24.02"/><path class="cls-44" d="M61.22,76.81H58.39V59.33a1.41,1.41,0,0,1,1.41-1.41h0a1.41,1.41,0,0,1,1.42,1.41Z"/><path class="cls-45" d="M62.69,78.28H56.92v-19a2.89,2.89,0,0,1,5.77,0Z"/><rect class="cls-46" x="68.78" y="53.01" width="2.83" height="24.27"/><rect class="cls-47" x="67.31" y="51.54" width="5.77" height="27.21"/><path class="cls-48" d="M95.7,71.9h0a1.41,1.41,0,0,1-1.41-1.41V58.68h2.83V70.49A1.41,1.41,0,0,1,95.7,71.9Z"/><path class="cls-49" d="M95.7,73.37a2.88,2.88,0,0,1-2.88-2.88V57.21h5.77V70.49A2.88,2.88,0,0,1,95.7,73.37Z"/><path class="cls-50" d="M116,78.23h-2.83V59.33a1.42,1.42,0,0,1,1.42-1.41h0A1.41,1.41,0,0,1,116,59.33Z"/><path class="cls-51" d="M117.48,79.7h-5.77V59.33a2.89,2.89,0,0,1,5.77,0Z"/><rect class="cls-52" x="124.52" y="48.94" width="2.83" height="29.28"/><rect class="cls-52" x="123.05" y="47.48" width="5.77" height="32.22"/></g></g></svg>