<svg xmlns="http://www.w3.org/2000/svg" xmlns:xlink="http://www.w3.org/1999/xlink" viewBox="0 0 108.15 108.15"><defs><style>.cls-1{fill:url(#linear-gradient);}.cls-2{fill:url(#linear-gradient-2);}.cls-3{fill:url(#linear-gradient-3);}.cls-4{fill:url(#linear-gradient-4);}</style><linearGradient id="linear-gradient" x1="-10.81" y1="119.89" x2="122.99" y2="-15.38" gradientUnits="userSpaceOnUse"><stop offset="0" stop-color="#29abe2"/><stop offset="1" stop-color="#0071bc"/></linearGradient><linearGradient id="linear-gradient-2" x1="-1.62" y1="128.97" x2="132.18" y2="-6.29" xlink:href="#linear-gradient"/><linearGradient id="linear-gradient-3" x1="-11.07" y1="119.63" x2="122.73" y2="-15.64" xlink:href="#linear-gradient"/><linearGradient id="linear-gradient-4" x1="-10.96" y1="119.74" x2="122.84" y2="-15.53" gradientTransform="translate(57.31 -14.59) rotate(45)" xlink:href="#linear-gradient"/></defs><title>Asset 6</title><g id="Layer_2" data-name="Layer 2"><g id="Layer_1-2" data-name="Layer 1"><path class="cls-1" d="M49.92,58.23a34.12,34.12,0,1,1,48.25,0A34.14,34.14,0,0,1,49.92,58.23ZM94.81,13.34a29.37,29.37,0,1,0,0,41.53A29.42,29.42,0,0,0,94.81,13.34Z"/><path class="cls-2" d="M92.79,52.85l-2.7-2.7a23.5,23.5,0,0,0,0-33.21l2.7-2.7A27.34,27.34,0,0,1,92.79,52.85Z"/><path class="cls-3" d="M2.78,105.37a9.54,9.54,0,0,1,0-13.47L35.89,58.79,49.36,72.26,16.25,105.37A9.54,9.54,0,0,1,2.78,105.37ZM35.89,65.53,6.15,95.27A4.76,4.76,0,0,0,12.88,102L42.62,72.26Z"/><rect class="cls-4" x="38.73" y="59.5" width="15.08" height="4.76" transform="translate(-30.2 50.84) rotate(-45)"/></g></g></svg>