<svg xmlns="http://www.w3.org/2000/svg" xmlns:xlink="http://www.w3.org/1999/xlink" viewBox="0 0 92.84 122.23"><defs><style>.cls-1{fill:url(#linear-gradient);}.cls-2{fill:url(#linear-gradient-2);}.cls-3{fill:url(#linear-gradient-3);}.cls-4{fill:url(#linear-gradient-4);}.cls-5{fill:url(#linear-gradient-5);}.cls-6{fill:url(#linear-gradient-6);}.cls-7{fill:url(#linear-gradient-7);}</style><linearGradient id="linear-gradient" x1="-34.65" y1="133.5" x2="77.57" y2="33.31" gradientUnits="userSpaceOnUse"><stop offset="0" stop-color="#29abe2"/><stop offset="1" stop-color="#0071bc"/></linearGradient><linearGradient id="linear-gradient-2" x1="-60.37" y1="104.69" x2="51.84" y2="4.5" xlink:href="#linear-gradient"/><linearGradient id="linear-gradient-3" x1="-44.44" y1="122.52" x2="67.77" y2="22.34" xlink:href="#linear-gradient"/><linearGradient id="linear-gradient-4" x1="-28.51" y1="140.36" x2="83.7" y2="40.18" xlink:href="#linear-gradient"/><linearGradient id="linear-gradient-5" x1="-44.2" y1="122.79" x2="68.01" y2="22.6" xlink:href="#linear-gradient"/><linearGradient id="linear-gradient-6" x1="-28.28" y1="140.63" x2="83.94" y2="40.44" xlink:href="#linear-gradient"/><linearGradient id="linear-gradient-7" x1="-12.68" y1="158.1" x2="99.53" y2="57.91" xlink:href="#linear-gradient"/></defs><title>Asset 3</title><g id="Layer_2" data-name="Layer 2"><g id="Layer_1-2" data-name="Layer 1"><path class="cls-1" d="M80.82,122.23H12a12,12,0,0,1-12-12V12A12,12,0,0,1,12,0h68.8a12,12,0,0,1,12,12v98.19A12,12,0,0,1,80.82,122.23ZM12,8a4,4,0,0,0-4,4v98.19a4,4,0,0,0,4,4h68.8a4,4,0,0,0,4-4V12a4,4,0,0,0-4-4Z"/><circle class="cls-2" cx="24.71" cy="28.72" r="11.35"/><circle class="cls-3" cx="24.71" cy="60.78" r="11.35"/><circle class="cls-4" cx="24.71" cy="92.84" r="11.35"/><rect class="cls-5" x="46.09" y="22.71" width="29.39" height="12.69" rx="6.35" ry="6.35"/><rect class="cls-6" x="46.09" y="54.77" width="29.39" height="12.69" rx="6.35" ry="6.35"/><rect class="cls-7" x="46.09" y="86.16" width="29.39" height="12.69" rx="6.35" ry="6.35"/></g></g></svg>