<?xml version="1.0" encoding="UTF-8" standalone="no"?>
<!DOCTYPE svg PUBLIC "-//W3C//DTD SVG 1.1//EN" "http://www.w3.org/Graphics/SVG/1.1/DTD/svg11.dtd">
<svg width="100%" height="100%" viewBox="0 0 899 293" version="1.1" xmlns="http://www.w3.org/2000/svg" xmlns:xlink="http://www.w3.org/1999/xlink" xml:space="preserve" xmlns:serif="http://www.serif.com/" style="fill-rule:evenodd;clip-rule:evenodd;stroke-linejoin:round;stroke-miterlimit:1.41421;">
    <g transform="matrix(1,0,0,1,-453,-362)">
        <g>
            <path d="M644.1,652.6L554.5,652.6C499.7,652.6 455.3,608.2 455.3,553.4L455.3,463.8C455.3,409 499.7,364.6 554.5,364.6L743.3,364.6L743.3,553.4C743.3,608.2 698.9,652.6 644.1,652.6Z" style="fill:url(#_Linear1);fill-rule:nonzero;"/>
            <g>
                <path d="M641,608.4C634.6,608.4 628.1,607 622.1,604.1C611.5,599.1 603.5,590.2 599.6,579.2L592.2,558.5L627.4,459.4C633,443.6 624.7,426.1 608.9,420.5C605.8,419.4 602.5,418.8 599.2,418.8L599.2,405.4C599.4,405.4 599.6,405.4 599.8,405.4C618.4,405.4 635,417.1 641.2,434.6L682.2,549.9C686.1,560.9 685.5,572.8 680.4,583.4C675.4,594 666.5,602 655.5,605.9C650.9,607.6 645.9,608.4 641,608.4ZM606.5,558.5L612.3,574.7C615,582.3 620.6,588.5 627.9,592C635.3,595.5 643.5,595.9 651.2,593.2C658.8,590.5 665,584.9 668.5,577.6C672,570.2 672.4,562 669.7,554.3L638.9,467.6L606.5,558.5Z" style="fill:white;fill-rule:nonzero;"/>
                <path d="M557.7,608.4C552.8,608.4 547.9,607.6 543,605.9C532,602 523.1,594 518.1,583.4C513.1,572.8 512.4,560.9 516.3,549.9L557.3,434.6C563.6,416.9 580.4,405.2 599.3,405.4L599.3,418.8C596,418.8 592.7,419.4 589.6,420.5C573.8,426.1 565.5,443.6 571.1,459.4L606.3,558.5L598.9,579.2C592.7,597.2 575.8,608.4 557.7,608.4ZM559.9,467.6L529.1,554.3C526.4,561.9 526.8,570.2 530.3,577.6C533.8,585 539.9,590.5 547.6,593.2C555.2,595.9 563.5,595.5 570.9,592C578.3,588.5 583.8,582.4 586.5,574.7L592.3,558.5L559.9,467.6Z" style="fill:white;fill-rule:nonzero;"/>
                <path d="M599.4,578.6L558.6,463.9C550.5,441.1 562.4,415.9 585.3,407.8C589.8,406.2 594.5,405.4 599.3,405.3L599.5,405.3C604.3,405.4 609,406.2 613.5,407.8C636.3,415.9 648.3,441.1 640.2,463.9L599.4,578.6ZM599.4,418.8C596.1,418.9 592.9,419.4 589.8,420.5C574,426.1 565.7,443.6 571.3,459.4L599.4,538.5L627.5,459.4C633.1,443.6 624.8,426.1 609,420.5C605.9,419.4 602.6,418.8 599.4,418.8Z" style="fill:white;fill-rule:nonzero;"/>
            </g>
            <g>
                <path d="M790.5,534.1C786.5,531.1 783.4,526.4 781.2,520.2L794.3,514.7C796.8,522.1 800.3,525.7 804.8,525.7C806.5,525.7 807.8,525.3 808.7,524.5C809.6,523.7 810,522.6 810,521.2C810,519.3 809.4,517.6 808.2,516.1C807,514.6 804.6,512.3 801.1,509.3L794.4,503.6C790.4,500.2 787.5,497.1 785.6,494.2C783.7,491.3 782.7,487.8 782.7,483.8C782.7,480 783.6,476.6 785.6,473.7C787.5,470.8 790.1,468.5 793.3,466.9C796.6,465.3 800.1,464.5 804,464.5C809.8,464.5 814.6,466.1 818.3,469.4C822.1,472.7 824.6,477.2 826,483.1L813.9,488.6C813.2,485.6 812,483.1 810.3,481C808.6,478.9 806.7,477.8 804.5,477.8C803,477.8 801.8,478.2 800.9,479.1C800,480 799.5,481.1 799.5,482.5C799.5,483.9 800.2,485.4 801.6,487C803,488.6 805.2,490.7 808.2,493.3L814.9,499.3C818.8,502.6 821.8,505.8 824,508.8C826.2,511.9 827.3,515.4 827.3,519.5C827.3,523.5 826.3,526.9 824.4,529.8C822.5,532.7 819.8,534.9 816.5,536.4C813.2,537.9 809.6,538.7 805.7,538.7C799.7,538.6 794.6,537.1 790.5,534.1Z" style="fill-rule:nonzero;"/>
                <path d="M842.8,533.4C840,530.2 838.6,525.3 838.6,518.6L838.6,478L831.5,478L831.5,465.7L838.6,465.7L838.6,444.1L857.6,444.1L857.6,465.7L868,465.7L868,478L857.6,478L857.6,516.8C857.6,521 859.7,523.1 863.9,523.1C866.1,523.1 867.9,522.9 869.2,522.6L869.2,537.2C864.8,537.9 861,538.2 857.7,538.2C850.5,538.2 845.5,536.6 842.8,533.4Z" style="fill-rule:nonzero;"/>
                <path d="M883.6,532.1C879.5,527.8 877.5,521.6 877.5,513.5L877.5,489.5C877.5,481.4 879.6,475.2 883.7,470.9C887.8,466.6 893.8,464.5 901.5,464.5C909.5,464.5 915.4,466.6 919.1,470.9C922.8,475.2 924.7,481.6 924.7,490L924.7,502.5L896,502.5L896,516.4C896,519.5 896.5,521.7 897.4,523.1C898.3,524.5 899.7,525.2 901.6,525.2C905.3,525.2 907.2,522.5 907.2,517.1L907.2,510.2L924.6,510.2L924.6,516.4C924.6,523.6 922.6,529.1 918.7,532.9C914.7,536.7 909,538.6 901.6,538.6C893.6,538.6 887.6,536.4 883.6,532.1ZM907.2,493.6L907.2,486.7C907.2,483.6 906.7,481.3 905.8,479.9C904.9,478.5 903.4,477.9 901.5,477.9C899.6,477.9 898.2,478.6 897.3,480.1C896.4,481.6 896,484.2 896,488L896,493.6L907.2,493.6Z" style="fill-rule:nonzero;"/>
                <path d="M940.5,532.1C936.4,527.8 934.4,521.6 934.4,513.5L934.4,489.5C934.4,481.4 936.5,475.2 940.6,470.9C944.7,466.6 950.7,464.5 958.4,464.5C966.4,464.5 972.3,466.6 976,470.9C979.7,475.2 981.6,481.6 981.6,490L981.6,502.5L953,502.5L953,516.4C953,519.5 953.5,521.7 954.4,523.1C955.3,524.5 956.7,525.2 958.6,525.2C962.3,525.2 964.2,522.5 964.2,517.1L964.2,510.2L981.6,510.2L981.6,516.4C981.6,523.6 979.6,529.1 975.7,532.9C971.7,536.7 966,538.6 958.6,538.6C950.5,538.6 944.5,536.4 940.5,532.1ZM964.1,493.6L964.1,486.7C964.1,483.6 963.6,481.3 962.7,479.9C961.8,478.5 960.3,477.9 958.4,477.9C956.5,477.9 955.1,478.6 954.2,480.1C953.3,481.6 952.9,484.2 952.9,488L952.9,493.6L964.1,493.6Z" style="fill-rule:nonzero;"/>
                <path d="M992.7,465.7L1010.9,465.7L1010.9,471.6C1015.7,466.7 1021.3,464.3 1027.8,464.3C1030.6,464.3 1033.1,465 1035.2,466.5C1037.3,467.9 1038.9,470.1 1040,473C1045.1,467.2 1051.2,464.3 1058.2,464.3C1062.3,464.3 1065.6,465.8 1068.1,468.8C1070.5,471.8 1071.8,476.1 1071.8,481.5L1071.8,537.3L1053.7,537.3L1053.7,483.4C1053.7,481.1 1053.3,479.5 1052.5,478.5C1051.7,477.6 1050.5,477.1 1049,477.1C1047.9,477.1 1046.7,477.4 1045.3,478C1043.9,478.6 1042.6,479.4 1041.4,480.5L1041.4,537.4L1023.3,537.4L1023.3,483.5C1023.3,481.2 1022.9,479.6 1022.1,478.6C1021.3,477.7 1020.1,477.2 1018.6,477.2C1017.5,477.2 1016.3,477.5 1014.9,478.1C1013.5,478.7 1012.2,479.5 1011,480.6L1011,537.5L992.8,537.5L992.8,465.7L992.7,465.7Z" style="fill-rule:nonzero;"/>
                <path d="M1086.3,534.1C1083.7,531.2 1082.3,527.4 1082.3,522.8C1082.3,518.6 1083,515.1 1084.5,512.4C1086,509.7 1088.7,507.1 1092.7,504.5C1096.7,501.9 1103,498.6 1111.5,494.5L1111.5,489.4C1111.5,484.2 1111.2,480.1 1110.6,477.3C1110,474.4 1108.9,472.4 1107.5,471.2C1106.1,470 1104.1,469.5 1101.6,469.5C1098.2,469.5 1095.5,470.5 1093.4,472.4C1091.3,474.3 1090.2,477.9 1090.2,483.1L1090.2,485L1083.8,485C1083.8,478.1 1085.2,472.9 1088,469.6C1090.8,466.3 1095.4,464.6 1101.9,464.6C1107.9,464.6 1112,466.5 1114.5,470.2C1116.9,474 1118.2,480.1 1118.2,488.7L1118.2,524.8C1118.2,526.5 1118.2,528.9 1118.3,531.9C1118.4,534.9 1118.5,536.7 1118.5,537.3L1112.8,537.3C1112.7,535.9 1112.5,534.2 1112.2,532.2L1111.7,527.7C1110.6,530.8 1108.7,533.3 1106,535.3C1103.3,537.3 1100.2,538.3 1096.7,538.3C1092.4,538.5 1088.9,537 1086.3,534.1ZM1106,530.2C1108.3,528.3 1110.1,525.9 1111.5,523L1111.5,499.4C1104.6,503 1099.7,505.7 1096.9,507.5C1094.1,509.3 1092,511.2 1090.8,513.3C1089.5,515.4 1088.9,518.2 1088.9,521.8C1088.9,525.8 1089.8,528.6 1091.6,530.4C1093.4,532.1 1095.6,533 1098.3,533C1101.2,533 1103.8,532.1 1106,530.2Z" style="fill-rule:nonzero;"/>
                <path d="M1136.8,534.9C1134.2,532.5 1132.5,529.4 1131.6,525.4C1130.7,521.4 1130.3,516.4 1130.3,510.4L1130.3,493.5C1130.3,486.2 1130.8,480.5 1131.9,476.4C1133,472.3 1134.8,469.3 1137.4,467.4C1140,465.5 1143.7,464.5 1148.4,464.5C1155.3,464.5 1159.9,466.5 1162.3,470.4C1164.7,474.4 1165.9,480.1 1165.9,487.6L1165.9,490.5L1159.7,490.5L1159.7,487.6C1159.7,482.8 1159.3,479.1 1158.5,476.4C1157.7,473.8 1156.5,471.9 1154.9,470.9C1153.3,469.9 1151.1,469.4 1148.4,469.4C1145.2,469.4 1142.7,470.1 1141.1,471.6C1139.4,473.1 1138.3,475.5 1137.8,478.7C1137.2,482 1136.9,486.6 1136.9,492.6L1136.9,511.2C1136.9,516.7 1137.2,521 1137.9,524.1C1138.6,527.2 1139.7,529.6 1141.4,531C1143.1,532.5 1145.4,533.2 1148.6,533.2C1151.7,533.2 1154.1,532.5 1155.7,531.2C1157.3,529.8 1158.4,527.8 1158.9,524.9C1159.4,522.1 1159.7,518.1 1159.7,513L1159.7,510.3L1165.9,510.3L1165.9,512.9C1165.9,518.4 1165.5,523 1164.7,526.5C1163.9,530.1 1162.2,532.9 1159.7,535C1157.2,537.1 1153.4,538.2 1148.5,538.2C1143.3,538.5 1139.4,537.3 1136.8,534.9Z" style="fill-rule:nonzero;"/>
                <path d="M1183.3,534.9C1180.7,532.5 1179,529.4 1178.1,525.4C1177.2,521.4 1176.8,516.4 1176.8,510.4L1176.8,493.5C1176.8,486.2 1177.3,480.5 1178.4,476.4C1179.5,472.3 1181.3,469.3 1183.9,467.4C1186.5,465.5 1190.2,464.5 1194.9,464.5C1201.8,464.5 1206.4,466.5 1208.8,470.4C1211.2,474.4 1212.4,480.1 1212.4,487.6L1212.4,490.5L1206.2,490.5L1206.2,487.6C1206.2,482.8 1205.8,479.1 1205,476.4C1204.2,473.8 1203,471.9 1201.4,470.9C1199.8,469.9 1197.6,469.4 1194.9,469.4C1191.7,469.4 1189.2,470.1 1187.6,471.6C1185.9,473.1 1184.8,475.5 1184.3,478.7C1183.7,482 1183.4,486.6 1183.4,492.6L1183.4,511.2C1183.4,516.7 1183.7,521 1184.4,524.1C1185.1,527.2 1186.2,529.6 1187.9,531C1189.6,532.5 1191.9,533.2 1195.1,533.2C1198.2,533.2 1200.6,532.5 1202.2,531.2C1203.8,529.8 1204.9,527.8 1205.4,524.9C1205.9,522.1 1206.2,518.1 1206.2,513L1206.2,510.3L1212.4,510.3L1212.4,512.9C1212.4,518.4 1212,523 1211.2,526.5C1210.4,530.1 1208.7,532.9 1206.2,535C1203.7,537.1 1199.9,538.2 1195,538.2C1189.7,538.5 1185.9,537.3 1183.3,534.9Z" style="fill-rule:nonzero;"/>
                <path d="M1231.4,536.1C1228.8,534.5 1226.7,531.7 1225.3,527.7C1223.9,523.7 1223.2,518 1223.2,510.8L1223.2,491.7C1223.2,484.5 1223.9,478.9 1225.4,475C1226.8,471 1228.9,468.3 1231.5,466.8C1234.1,465.3 1237.5,464.6 1241.5,464.6C1246,464.6 1249.5,465.6 1252,467.5C1254.6,469.4 1256.4,472.4 1257.5,476.5C1258.6,480.6 1259.1,486.1 1259.1,493.2L1259.1,500L1229.7,500L1229.7,511.4C1229.7,517.1 1230.1,521.6 1230.9,524.8C1231.7,528 1232.9,530.3 1234.6,531.6C1236.3,532.9 1238.5,533.6 1241.4,533.6C1244.8,533.6 1247.5,532.6 1249.6,530.7C1251.7,528.8 1252.7,524.7 1252.7,518.6L1252.7,513.3L1259.1,513.3L1259.1,518C1259.1,524.6 1257.8,529.7 1255.1,533.2C1252.4,536.8 1247.8,538.5 1241.4,538.5C1237.4,538.5 1234.1,537.7 1231.4,536.1ZM1252.7,496L1252.7,490.4C1252.7,485.5 1252.5,481.6 1252,478.7C1251.5,475.8 1250.4,473.6 1248.8,471.9C1247.2,470.3 1244.8,469.5 1241.5,469.5C1238.7,469.5 1236.4,470.1 1234.7,471.2C1233,472.4 1231.7,474.5 1230.9,477.5C1230.1,480.6 1229.7,484.9 1229.7,490.4L1229.7,495.9L1252.7,495.9L1252.7,496Z" style="fill-rule:nonzero;"/>
                <path d="M1274.4,533C1271.1,529.4 1269.2,524.4 1268.7,518L1274.3,516.4C1274.7,522.3 1276.1,526.6 1278.4,529.4C1280.7,532.2 1283.9,533.6 1288.1,533.6C1291.7,533.6 1294.5,532.6 1296.5,530.6C1298.5,528.6 1299.5,525.7 1299.5,522C1299.5,516.8 1296,511.2 1289,505.3L1280.7,498.2C1277.1,495.1 1274.4,492.1 1272.8,489.4C1271.2,486.7 1270.4,483.5 1270.4,480C1270.4,475.2 1271.9,471.5 1274.8,468.8C1277.7,466.1 1281.7,464.8 1286.6,464.8C1291.8,464.8 1295.8,466.5 1298.5,469.8C1301.2,473.1 1302.7,477.7 1302.8,483.6L1298,485.1C1297.7,474.9 1294,469.9 1287,469.9C1283.8,469.9 1281.2,470.7 1279.3,472.4C1277.4,474.1 1276.4,476.4 1276.4,479.5C1276.4,482.2 1276.9,484.6 1278,486.5C1279,488.4 1281,490.7 1283.8,493.1L1292.4,500.7C1295.3,503.3 1297.6,505.5 1299.3,507.3C1301,509.1 1302.4,511.3 1303.6,513.8C1304.8,516.3 1305.4,519.2 1305.4,522.4C1305.4,527.5 1303.8,531.6 1300.7,534.5C1297.6,537.4 1293.3,538.9 1287.9,538.9C1282.2,538.5 1277.7,536.7 1274.4,533Z" style="fill-rule:nonzero;"/>
                <path d="M1318.6,533C1315.3,529.4 1313.4,524.4 1312.9,518L1318.5,516.4C1318.9,522.3 1320.3,526.6 1322.6,529.4C1324.9,532.2 1328.1,533.6 1332.3,533.6C1335.9,533.6 1338.7,532.6 1340.7,530.6C1342.7,528.6 1343.7,525.7 1343.7,522C1343.7,516.8 1340.2,511.2 1333.2,505.3L1324.9,498.2C1321.3,495.1 1318.6,492.1 1317,489.4C1315.4,486.7 1314.6,483.5 1314.6,480C1314.6,475.2 1316.1,471.5 1319,468.8C1321.9,466.1 1325.9,464.8 1330.8,464.8C1336,464.8 1340,466.5 1342.7,469.8C1345.4,473.1 1346.9,477.7 1347,483.6L1342.2,485.1C1341.9,474.9 1338.2,469.9 1331.2,469.9C1328,469.9 1325.4,470.7 1323.5,472.4C1321.6,474.1 1320.6,476.4 1320.6,479.5C1320.6,482.2 1321.1,484.6 1322.2,486.5C1323.2,488.4 1325.2,490.7 1328,493.1L1336.6,500.7C1339.5,503.3 1341.8,505.5 1343.5,507.3C1345.2,509.1 1346.6,511.3 1347.8,513.8C1349,516.3 1349.6,519.2 1349.6,522.4C1349.6,527.5 1348,531.6 1344.9,534.5C1341.8,537.4 1337.5,538.9 1332.1,538.9C1326.3,538.5 1321.9,536.7 1318.6,533Z" style="fill-rule:nonzero;"/>
            </g>
        </g>
    </g>
    <defs>
        <linearGradient id="_Linear1" x1="0" y1="0" x2="1" y2="0" gradientUnits="userSpaceOnUse" gradientTransform="matrix(287.961,0,0,287.961,455.372,508.577)"><stop offset="0" style="stop-color:rgb(10,206,254);stop-opacity:1"/><stop offset="1" style="stop-color:rgb(72,90,254);stop-opacity:1"/></linearGradient>
    </defs>
</svg>
