<svg xmlns="http://www.w3.org/2000/svg" xmlns:xlink="http://www.w3.org/1999/xlink" viewBox="0 0 176.53 115.96"><defs><style>.cls-1{fill:url(#linear-gradient);}.cls-2{fill:url(#linear-gradient-2);}.cls-3{fill:url(#linear-gradient-3);}.cls-4{fill:url(#linear-gradient-4);}.cls-5{fill:url(#linear-gradient-5);}.cls-6{fill:url(#linear-gradient-6);}</style><linearGradient id="linear-gradient" x1="-20.37" y1="71.58" x2="183.34" y2="-11.28" gradientUnits="userSpaceOnUse"><stop offset="0" stop-color="#29abe2"/><stop offset="1" stop-color="#0071bc"/></linearGradient><linearGradient id="linear-gradient-2" x1="0.78" y1="123.56" x2="204.48" y2="40.7" xlink:href="#linear-gradient"/><linearGradient id="linear-gradient-3" x1="-28.96" y1="50.45" x2="174.74" y2="-32.41" xlink:href="#linear-gradient"/><linearGradient id="linear-gradient-4" x1="-13.22" y1="89.17" x2="190.49" y2="6.31" xlink:href="#linear-gradient"/><linearGradient id="linear-gradient-5" x1="-11.37" y1="93.71" x2="192.34" y2="10.85" xlink:href="#linear-gradient"/><linearGradient id="linear-gradient-6" x1="4.99" y1="133.93" x2="208.7" y2="51.07" xlink:href="#linear-gradient"/></defs><title>Asset 1</title><g id="Layer_2" data-name="Layer 2"><g id="Layer_1-2" data-name="Layer 1"><path class="cls-1" d="M89.51,53.78a26.89,26.89,0,1,0-19-7.87A26.78,26.78,0,0,0,89.51,53.78ZM74.15,11.53a21.72,21.72,0,1,1,0,30.72A21.6,21.6,0,0,1,74.15,11.53Z"/><path class="cls-2" d="M100.8,55.12H78.48A26.84,26.84,0,0,0,51.67,81.93V100.6A15.38,15.38,0,0,0,67,116h45.22a15.38,15.38,0,0,0,15.36-15.36V81.93A26.84,26.84,0,0,0,100.8,55.12Zm20.9,26.81V100.6a9.46,9.46,0,0,1-9.45,9.45H67a9.46,9.46,0,0,1-9.45-9.45V81.93A20.93,20.93,0,0,1,78.48,61H100.8A20.92,20.92,0,0,1,121.7,81.93Z"/><path class="cls-3" d="M32.69,48.64A23.27,23.27,0,0,0,49.14,8.92,23.26,23.26,0,0,0,9.43,25.38,23.23,23.23,0,0,0,32.69,48.64ZM19.54,12.22a18.6,18.6,0,1,1,0,26.31A18.55,18.55,0,0,1,19.54,12.22Z"/><path class="cls-4" d="M143.61,48.64a23.23,23.23,0,1,0-16.46-6.81A23.21,23.21,0,0,0,143.61,48.64ZM130.46,12.22a18.6,18.6,0,1,1,0,26.31A18.55,18.55,0,0,1,130.46,12.22Z"/><path class="cls-5" d="M46.32,100.6V96.88h-33a8,8,0,0,1-8-8V72.77A17.92,17.92,0,0,1,23.19,54.88H42.41a17.86,17.86,0,0,1,12,4.63L55,60l.52-.53A31.83,31.83,0,0,1,58.2,57l.68-.56-.64-.6a23.13,23.13,0,0,0-15.83-6.25H23.19A23.21,23.21,0,0,0,0,72.77V88.85a13.35,13.35,0,0,0,13.33,13.33H45.57l.79,0,0-.79C46.33,101.11,46.32,100.85,46.32,100.6Z"/><path class="cls-6" d="M153.33,49.58H134.11a23.22,23.22,0,0,0-14.48,5.1l-.79.62.82.6a31,31,0,0,1,2.92,2.39l.47.43.5-.38a17.78,17.78,0,0,1,10.56-3.46h19.22a17.91,17.91,0,0,1,17.89,17.89V88.85a8,8,0,0,1-8,8H133v3.72c0,.25,0,.49,0,.79l0,.79h30.27a13.35,13.35,0,0,0,13.34-13.33V72.77A23.22,23.22,0,0,0,153.33,49.58Z"/></g></g></svg>