<svg xmlns="http://www.w3.org/2000/svg" xmlns:xlink="http://www.w3.org/1999/xlink" viewBox="0 0 139.26 137.58"><defs><style>.cls-1{fill:url(#linear-gradient);}.cls-2{fill:url(#linear-gradient-2);}.cls-3{fill:#fff;}</style><linearGradient id="linear-gradient" x1="3.89" y1="134.87" x2="70.41" y2="66.83" gradientUnits="userSpaceOnUse"><stop offset="0" stop-color="#29abe2"/><stop offset="1" stop-color="#0071bc"/></linearGradient><linearGradient id="linear-gradient-2" x1="41.72" y1="90.4" x2="104.61" y2="34.91" xlink:href="#linear-gradient"/></defs><title>Asset 5</title><g id="Layer_2" data-name="Layer 2"><g id="Layer_1-2" data-name="Layer 1"><path class="cls-1" d="M104.15,119a11.85,11.85,0,0,1-11.84,11.84H18.56A11.85,11.85,0,0,1,6.72,119V45.27A11.85,11.85,0,0,1,18.56,33.43H62.47a39.14,39.14,0,0,1,1.14-6.72h-45A18.59,18.59,0,0,0,0,45.27V119a18.59,18.59,0,0,0,18.56,18.56H92.31A18.59,18.59,0,0,0,110.87,119v-43a39.08,39.08,0,0,1-6.72.85Z"/><circle class="cls-2" cx="102.47" cy="36.79" r="36.79"/><rect class="cls-3" x="98.11" y="6.89" width="9.07" height="40.99" rx="4.03" ry="4.03"/><circle class="cls-3" cx="102.47" cy="61.32" r="7.39"/></g></g></svg>