<?xml version="1.0" encoding="UTF-8" standalone="no"?>
<!DOCTYPE svg PUBLIC "-//W3C//DTD SVG 1.1//EN" "http://www.w3.org/Graphics/SVG/1.1/DTD/svg11.dtd">
<svg width="100%" height="100%" viewBox="0 0 667 177" version="1.1" xmlns="http://www.w3.org/2000/svg" xmlns:xlink="http://www.w3.org/1999/xlink" xml:space="preserve" xmlns:serif="http://www.serif.com/" style="fill-rule:evenodd;clip-rule:evenodd;stroke-linejoin:round;stroke-miterlimit:1.41421;">
    <g transform="matrix(1,0,0,1,-633,-420)">
        <g>
            <g>
                <path d="M743.6,595.1C738.1,595.1 732.7,593.9 727.6,591.5C718.6,587.2 711.8,579.7 708.5,570.4L702.3,552.9L732.1,469.1C736.9,455.7 729.8,440.9 716.5,436.2C713.9,435.3 711.1,434.8 708.3,434.7L708.3,423.3C708.5,423.3 708.6,423.3 708.8,423.3C724.5,423.3 738.6,433.2 743.9,448L778.6,545.5C781.9,554.8 781.4,564.9 777.1,573.9C772.8,582.9 765.3,589.7 756,593C752,594.4 747.8,595.1 743.6,595.1ZM714.4,552.9L719.3,566.6C721.6,573.1 726.3,578.2 732.5,581.2C738.7,584.2 745.7,584.5 752.2,582.2C758.7,579.9 763.8,575.2 766.8,569C769.8,562.8 770.1,555.8 767.8,549.3L741.8,476L714.4,552.9Z" style="fill:white;fill-rule:nonzero;"/>
                <path d="M673.2,595.1C669.1,595.1 664.9,594.4 660.8,593C651.5,589.7 644,582.9 639.7,573.9C635.4,564.9 634.9,554.8 638.2,545.5L672.9,448C678.2,433 692.5,423.1 708.5,423.3L708.5,434.7C705.7,434.7 702.9,435.2 700.3,436.2C686.9,441 679.9,455.7 684.7,469.1L714.5,552.9L708.3,570.4C702.8,585.6 688.5,595.1 673.2,595.1ZM675,476L648.9,549.3C646.6,555.8 647,562.7 649.9,569C652.9,575.2 658.1,579.9 664.5,582.2C671,584.5 677.9,584.1 684.2,581.2C690.4,578.2 695.1,573 697.4,566.6L702.3,552.9L675,476Z" style="fill:white;fill-rule:nonzero;"/>
                <path d="M708.4,569.9L673.9,472.9C667,453.6 677.2,432.3 696.4,425.5C700.2,424.1 704.2,423.4 708.3,423.4L708.5,423.4C712.6,423.5 716.6,424.2 720.4,425.5C739.7,432.4 749.8,453.6 742.9,472.9L708.4,569.9ZM708.4,434.7C705.6,434.7 702.9,435.2 700.3,436.2C686.9,441 679.9,455.7 684.7,469.1L708.5,536L732.3,469.1C737.1,455.7 730,440.9 716.7,436.2C713.9,435.2 711.2,434.7 708.4,434.7Z" style="fill:white;fill-rule:nonzero;"/>
            </g>
            <g>
                <path d="M824.3,532.2C820.9,529.6 818.3,525.7 816.4,520.4L827.5,515.8C829.6,522 832.6,525.1 836.4,525.1C837.9,525.1 839,524.8 839.7,524.1C840.4,523.4 840.8,522.5 840.8,521.3C840.8,519.7 840.3,518.3 839.3,517C838.3,515.7 836.3,513.8 833.3,511.2L827.6,506.4C824.2,503.5 821.8,500.9 820.2,498.4C818.6,496 817.8,493 817.8,489.6C817.8,486.4 818.6,483.5 820.2,481.1C821.8,478.6 824,476.7 826.8,475.3C829.6,473.9 832.6,473.3 835.9,473.3C840.8,473.3 844.8,474.7 848,477.4C851.2,480.2 853.4,484 854.6,489L844.3,493.6C843.7,491.1 842.7,488.9 841.3,487.2C839.9,485.4 838.3,484.5 836.4,484.5C835.1,484.5 834.1,484.9 833.4,485.6C832.6,486.3 832.2,487.3 832.2,488.5C832.2,489.7 832.8,491 834,492.3C835.2,493.7 837,495.4 839.6,497.6L845.3,502.6C848.6,505.4 851.2,508.1 853,510.7C854.9,513.3 855.8,516.3 855.8,519.7C855.8,523.1 855,526 853.3,528.4C851.7,530.8 849.4,532.7 846.6,534C843.8,535.3 840.8,535.9 837.5,535.9C832,536 827.7,534.8 824.3,532.2Z" style="fill:white;fill-rule:nonzero;"/>
                <path d="M868.5,531.6C866.2,528.9 865,524.7 865,519.1L865,484.7L859,484.7L859,474.3L865,474.3L865,456.1L881,456.1L881,474.3L889.8,474.3L889.8,484.7L881,484.7L881,517.5C881,521.1 882.8,522.8 886.3,522.8C888.2,522.8 889.7,522.7 890.8,522.4L890.8,534.8C887.1,535.4 883.8,535.6 881,535.6C875,535.7 870.8,534.4 868.5,531.6Z" style="fill:white;fill-rule:nonzero;"/>
                <path d="M903,530.6C899.5,527 897.8,521.7 897.8,514.9L897.8,494.6C897.8,487.7 899.5,482.5 903,478.9C906.5,475.3 911.5,473.4 918.1,473.4C924.9,473.4 929.8,475.2 933,478.9C936.1,482.5 937.7,487.9 937.7,495L937.7,505.6L913.5,505.6L913.5,517.3C913.5,519.9 913.9,521.8 914.7,523C915.5,524.2 916.7,524.8 918.2,524.8C921.3,524.8 922.9,522.5 922.9,518L922.9,512L937.6,512L937.6,517.2C937.6,523.3 935.9,527.9 932.6,531.1C929.2,534.3 924.4,535.9 918.1,535.9C911.5,536 906.4,534.2 903,530.6ZM923,498L923,492.1C923,489.4 922.6,487.5 921.8,486.4C921,485.2 919.8,484.7 918.1,484.7C916.5,484.7 915.3,485.3 914.6,486.6C913.9,487.9 913.5,490.1 913.5,493.3L913.5,498L923,498Z" style="fill:white;fill-rule:nonzero;"/>
                <path d="M951.1,530.6C947.6,527 945.9,521.7 945.9,514.9L945.9,494.6C945.9,487.7 947.6,482.5 951.1,478.9C954.6,475.3 959.6,473.4 966.2,473.4C973,473.4 977.9,475.2 981.1,478.9C984.2,482.5 985.8,487.9 985.8,495L985.8,505.6L961.6,505.6L961.6,517.3C961.6,519.9 962,521.8 962.8,523C963.6,524.2 964.8,524.8 966.3,524.8C969.4,524.8 971,522.5 971,518L971,512L985.7,512L985.7,517.2C985.7,523.3 984,527.9 980.7,531.1C977.3,534.3 972.5,535.9 966.2,535.9C959.6,536 954.6,534.2 951.1,530.6ZM971.1,498L971.1,492.1C971.1,489.4 970.7,487.5 969.9,486.4C969.1,485.2 967.9,484.7 966.2,484.7C964.6,484.7 963.4,485.3 962.7,486.6C962,487.9 961.6,490.1 961.6,493.3L961.6,498L971.1,498Z" style="fill:white;fill-rule:nonzero;"/>
                <path d="M995.3,474.4L1010.7,474.4L1010.7,479.4C1014.8,475.3 1019.5,473.2 1025,473.2C1027.4,473.2 1029.5,473.8 1031.2,475C1033,476.2 1034.3,478.1 1035.2,480.5C1039.5,475.6 1044.7,473.2 1050.6,473.2C1054.1,473.2 1056.9,474.5 1058.9,477C1061,479.6 1062,483.1 1062,487.7L1062,535L1046.7,535L1046.7,489.4C1046.7,487.4 1046.4,486.1 1045.7,485.3C1045,484.5 1044,484.1 1042.7,484.1C1041.8,484.1 1040.8,484.3 1039.6,484.8C1038.4,485.3 1037.3,486 1036.3,486.9L1036.3,535L1021,535L1021,489.4C1021,487.4 1020.7,486.1 1020,485.3C1019.3,484.5 1018.3,484.1 1017,484.1C1016.1,484.1 1015.1,484.3 1013.9,484.8C1012.7,485.3 1011.6,486 1010.6,486.9L1010.6,535L995.2,535L995.2,474.4L995.3,474.4Z" style="fill:white;fill-rule:nonzero;"/>
                <path d="M1074.5,532.3C1072.3,529.9 1071.1,526.7 1071.1,522.8C1071.1,519.2 1071.7,516.3 1073,514C1074.3,511.7 1076.6,509.5 1080,507.3C1083.4,505.1 1088.7,502.3 1095.9,498.9L1095.9,494.6C1095.9,490.2 1095.6,486.8 1095.1,484.3C1094.6,481.9 1093.7,480.1 1092.5,479.2C1091.3,478.2 1089.6,477.7 1087.5,477.7C1084.6,477.7 1082.3,478.5 1080.5,480.1C1078.7,481.7 1077.8,484.7 1077.8,489.1L1077.8,490.7L1072.3,490.7C1072.3,484.8 1073.5,480.5 1075.9,477.7C1078.3,474.9 1082.2,473.5 1087.6,473.5C1092.6,473.5 1096.2,475.1 1098.2,478.3C1100.3,481.5 1101.3,486.7 1101.3,494L1101.3,524.5C1101.3,526 1101.3,528 1101.4,530.5C1101.5,533.1 1101.5,534.6 1101.6,535.1L1096.8,535.1C1096.7,533.9 1096.6,532.5 1096.3,530.8L1095.9,527C1095,529.6 1093.4,531.7 1091.1,533.4C1088.8,535.1 1086.2,536 1083.2,536C1079.7,535.9 1076.7,534.7 1074.5,532.3ZM1091.2,528.9C1093.1,527.3 1094.7,525.3 1095.9,522.8L1095.9,502.9C1090,506 1085.9,508.3 1083.5,509.8C1081.1,511.3 1079.4,512.9 1078.3,514.7C1077.2,516.5 1076.7,518.9 1076.7,521.9C1076.7,525.3 1077.5,527.7 1079,529.1C1080.5,530.6 1082.4,531.3 1084.7,531.3C1087.1,531.3 1089.3,530.5 1091.2,528.9Z" style="fill:white;fill-rule:nonzero;"/>
                <path d="M1117.2,532.9C1115,530.9 1113.5,528.2 1112.8,524.9C1112.1,521.5 1111.7,517.3 1111.7,512.2L1111.7,498C1111.7,491.8 1112.2,487 1113.1,483.5C1114,480 1115.6,477.5 1117.8,475.8C1120,474.2 1123.1,473.4 1127.1,473.4C1132.9,473.4 1136.8,475.1 1138.8,478.4C1140.8,481.8 1141.8,486.6 1141.8,493L1141.8,495.4L1136.6,495.4L1136.6,493C1136.6,488.9 1136.3,485.8 1135.6,483.6C1134.9,481.4 1133.9,479.8 1132.6,478.9C1131.2,478 1129.4,477.6 1127.1,477.6C1124.4,477.6 1122.3,478.2 1120.9,479.5C1119.5,480.8 1118.6,482.8 1118.1,485.5C1117.6,488.3 1117.4,492.2 1117.4,497.3L1117.4,513C1117.4,517.6 1117.7,521.2 1118.2,523.9C1118.8,526.6 1119.7,528.5 1121.1,529.8C1122.5,531.1 1124.5,531.7 1127.2,531.7C1129.9,531.7 1131.9,531.1 1133.2,530C1134.6,528.8 1135.5,527.1 1135.9,524.7C1136.4,522.3 1136.6,519 1136.6,514.6L1136.6,512.3L1141.8,512.3L1141.8,514.5C1141.8,519.2 1141.4,523 1140.8,526C1140.1,529 1138.7,531.4 1136.6,533.2C1134.5,535 1131.3,535.9 1127.1,535.9C1122.7,535.9 1119.4,534.9 1117.2,532.9Z" style="fill:white;fill-rule:nonzero;"/>
                <path d="M1156.5,532.9C1154.3,530.9 1152.8,528.2 1152.1,524.9C1151.4,521.5 1151,517.3 1151,512.2L1151,498C1151,491.8 1151.5,487 1152.4,483.5C1153.3,480 1154.9,477.5 1157.1,475.8C1159.3,474.2 1162.4,473.4 1166.4,473.4C1172.2,473.4 1176.1,475.1 1178.1,478.4C1180.1,481.8 1181.1,486.6 1181.1,493L1181.1,495.4L1175.9,495.4L1175.9,493C1175.9,488.9 1175.6,485.8 1174.9,483.6C1174.2,481.4 1173.2,479.8 1171.9,478.9C1170.5,478 1168.7,477.6 1166.4,477.6C1163.7,477.6 1161.6,478.2 1160.2,479.5C1158.8,480.8 1157.9,482.8 1157.4,485.5C1156.9,488.3 1156.7,492.2 1156.7,497.3L1156.7,513C1156.7,517.6 1157,521.2 1157.5,523.9C1158.1,526.6 1159,528.5 1160.4,529.8C1161.8,531.1 1163.8,531.7 1166.5,531.7C1169.2,531.7 1171.2,531.1 1172.5,530C1173.9,528.8 1174.8,527.1 1175.2,524.7C1175.7,522.3 1175.9,519 1175.9,514.6L1175.9,512.3L1181.1,512.3L1181.1,514.5C1181.1,519.2 1180.7,523 1180.1,526C1179.4,529 1178,531.4 1175.9,533.2C1173.8,535 1170.6,535.9 1166.4,535.9C1162,535.9 1158.7,534.9 1156.5,532.9Z" style="fill:white;fill-rule:nonzero;"/>
                <path d="M1197.3,533.9C1195.1,532.6 1193.3,530.2 1192.2,526.8C1191,523.4 1190.4,518.6 1190.4,512.5L1190.4,496.4C1190.4,490.3 1191,485.6 1192.2,482.2C1193.4,478.8 1195.2,476.5 1197.4,475.3C1199.6,474 1202.5,473.4 1205.9,473.4C1209.7,473.4 1212.6,474.2 1214.8,475.8C1217,477.4 1218.5,479.9 1219.4,483.4C1220.3,486.9 1220.8,491.6 1220.8,497.5L1220.8,503.3L1195.9,503.3L1195.9,512.9C1195.9,517.7 1196.2,521.5 1196.9,524.2C1197.6,526.9 1198.6,528.8 1200,530C1201.4,531.1 1203.3,531.7 1205.8,531.7C1208.7,531.7 1211,530.9 1212.7,529.2C1214.4,527.6 1215.3,524.2 1215.3,519L1215.3,514.5L1220.8,514.5L1220.8,518.5C1220.8,524.1 1219.7,528.4 1217.4,531.4C1215.1,534.4 1211.3,535.9 1205.8,535.9C1202.4,535.9 1199.5,535.3 1197.3,533.9ZM1215.3,500L1215.3,495.3C1215.3,491.2 1215.1,487.9 1214.7,485.4C1214.3,483 1213.4,481 1212,479.7C1210.6,478.3 1208.6,477.7 1205.9,477.7C1203.5,477.7 1201.6,478.2 1200.2,479.2C1198.8,480.2 1197.7,482 1197,484.5C1196.3,487.1 1196,490.7 1196,495.4L1196,500L1215.3,500Z" style="fill:white;fill-rule:nonzero;"/>
                <path d="M1233.7,531.3C1230.9,528.2 1229.3,524 1228.9,518.6L1233.6,517.2C1233.9,522.2 1235.1,525.8 1237.1,528.2C1239.1,530.5 1241.8,531.7 1245.3,531.7C1248.4,531.7 1250.8,530.8 1252.4,529.1C1254.1,527.4 1254.9,525 1254.9,521.8C1254.9,517.4 1251.9,512.7 1246,507.6L1239,501.6C1235.9,498.9 1233.7,496.5 1232.3,494.2C1230.9,491.9 1230.3,489.2 1230.3,486.2C1230.3,482.1 1231.5,479 1234,476.7C1236.5,474.4 1239.8,473.3 1244,473.3C1248.4,473.3 1251.8,474.7 1254.1,477.5C1256.4,480.3 1257.6,484.2 1257.8,489.1L1253.7,490.4C1253.4,481.8 1250.3,477.5 1244.4,477.5C1241.7,477.5 1239.5,478.2 1237.9,479.6C1236.3,481 1235.5,483 1235.5,485.6C1235.5,487.9 1235.9,489.9 1236.8,491.5C1237.7,493.1 1239.3,495 1241.7,497.1L1248.9,503.5C1251.3,505.7 1253.3,507.5 1254.7,509.1C1256.1,510.6 1257.4,512.5 1258.4,514.6C1259.4,516.7 1259.9,519.2 1259.9,521.9C1259.9,526.2 1258.6,529.6 1255.9,532.1C1253.2,534.6 1249.6,535.8 1245.1,535.8C1240.2,535.9 1236.5,534.4 1233.7,531.3Z" style="fill:white;fill-rule:nonzero;"/>
                <path d="M1271,531.3C1268.2,528.2 1266.6,524 1266.2,518.6L1270.9,517.2C1271.2,522.2 1272.4,525.8 1274.4,528.2C1276.4,530.5 1279.1,531.7 1282.6,531.7C1285.7,531.7 1288.1,530.8 1289.7,529.1C1291.4,527.4 1292.2,525 1292.2,521.8C1292.2,517.4 1289.2,512.7 1283.3,507.6L1276.3,501.6C1273.2,498.9 1271,496.5 1269.6,494.2C1268.2,491.9 1267.6,489.2 1267.6,486.2C1267.6,482.1 1268.8,479 1271.3,476.7C1273.8,474.4 1277.1,473.3 1281.3,473.3C1285.7,473.3 1289.1,474.7 1291.4,477.5C1293.7,480.3 1294.9,484.2 1295.1,489.1L1291,490.4C1290.7,481.8 1287.6,477.5 1281.7,477.5C1279,477.5 1276.8,478.2 1275.2,479.6C1273.6,481 1272.8,483 1272.8,485.6C1272.8,487.9 1273.2,489.9 1274.1,491.5C1275,493.1 1276.6,495 1279,497.1L1286.2,503.5C1288.6,505.7 1290.6,507.5 1292,509.1C1293.4,510.6 1294.7,512.5 1295.7,514.6C1296.7,516.7 1297.2,519.2 1297.2,521.9C1297.2,526.2 1295.9,529.6 1293.2,532.1C1290.5,534.6 1286.9,535.8 1282.4,535.8C1277.6,535.9 1273.8,534.4 1271,531.3Z" style="fill:white;fill-rule:nonzero;"/>
            </g>
        </g>
    </g>
</svg>
