<svg xmlns="http://www.w3.org/2000/svg" xmlns:xlink="http://www.w3.org/1999/xlink" viewBox="0 0 145.46 136.06"><defs><style>.cls-1{fill:url(#linear-gradient);}.cls-2{fill:url(#linear-gradient-2);}.cls-3{fill:url(#linear-gradient-3);}.cls-4{fill:url(#linear-gradient-4);}.cls-5{fill:url(#linear-gradient-5);}.cls-6{fill:url(#linear-gradient-6);}.cls-7{fill:url(#linear-gradient-7);}</style><linearGradient id="linear-gradient" x1="-16.31" y1="156.7" x2="174.11" y2="-17.76" gradientUnits="userSpaceOnUse"><stop offset="0" stop-color="#29abe2"/><stop offset="1" stop-color="#0071bc"/></linearGradient><linearGradient id="linear-gradient-2" x1="-51.52" y1="118.27" x2="138.9" y2="-56.19" xlink:href="#linear-gradient"/><linearGradient id="linear-gradient-3" x1="-24.7" y1="147.54" x2="165.71" y2="-26.92" xlink:href="#linear-gradient"/><linearGradient id="linear-gradient-4" x1="-20.31" y1="152.34" x2="170.11" y2="-22.12" xlink:href="#linear-gradient"/><linearGradient id="linear-gradient-5" x1="-13.22" y1="160.07" x2="177.19" y2="-14.39" xlink:href="#linear-gradient"/><linearGradient id="linear-gradient-6" x1="-7.72" y1="166.08" x2="182.7" y2="-8.38" xlink:href="#linear-gradient"/><linearGradient id="linear-gradient-7" x1="-64.51" y1="104.1" x2="125.91" y2="-70.37" xlink:href="#linear-gradient"/></defs><title>Asset 2</title><g id="Layer_2" data-name="Layer 2"><g id="Layer_1-2" data-name="Layer 1"><path class="cls-1" d="M38.3,136.06a17.22,17.22,0,0,1-15.75-10.25L1.46,78a17.21,17.21,0,0,1,8.79-22.66l90-39.68a17.18,17.18,0,0,1,22.66,8.79L144,72.27a17.2,17.2,0,0,1-8.79,22.66l-90,39.67A17.13,17.13,0,0,1,38.3,136.06Zm68.87-116.4a11.67,11.67,0,0,0-4.7,1l-90,39.68a11.71,11.71,0,0,0-6,15.42L27.57,123.6a11.72,11.72,0,0,0,15.43,6l90-39.68a11.73,11.73,0,0,0,6-15.43l-21.1-47.84A11.7,11.7,0,0,0,107.17,19.66Z"/><path class="cls-2" d="M42.9,1h0a4.94,4.94,0,0,0-6.74,3h0L20.63,51.73l5.21,1.7L40.7,7.79a1.41,1.41,0,0,1,1.93-.85L86.34,26.76l2.27-5Z"/><path class="cls-3" d="M39.06,75.34A16.32,16.32,0,0,0,31,76.75a16.49,16.49,0,0,0-6.55,5.07,14.91,14.91,0,0,0-3,7.4,16,16,0,0,0,6.35,14.39,14.89,14.89,0,0,0,7.49,2.77h0A16.45,16.45,0,0,0,43.38,105a16.28,16.28,0,0,0,6.52-5,14.89,14.89,0,0,0,3-7.39,15.93,15.93,0,0,0-6.36-14.43A14.84,14.84,0,0,0,39.06,75.34Zm-5,8.58a7.94,7.94,0,0,1,4.06-.71,7,7,0,0,1,3.54,1.35,8.31,8.31,0,0,1,3.17,7.19,7,7,0,0,1-1.39,3.53,8.69,8.69,0,0,1-7.35,3.23,7,7,0,0,1-3.58-1.35A8.13,8.13,0,0,1,29.41,90a7,7,0,0,1,1.41-3.55A8.15,8.15,0,0,1,34.11,83.92Z"/><path class="cls-4" d="M66.56,64.48h0a14,14,0,0,0-9.63,1l-11,4.87L58.15,98.22l7.43-3.28L62.4,87.75,66,86.15c3.5-1.54,6-3.68,7.28-6.37a11.33,11.33,0,0,0-6.74-15.3Zm-7.3,16.13-2.82-6.38L60,72.67A6.3,6.3,0,0,1,64,72a2.94,2.94,0,0,1,1.9,1.93A2.8,2.8,0,0,1,66,76.56h0a6.23,6.23,0,0,1-3.18,2.49Z"/><polygon class="cls-5" points="83.98 74.23 95.77 69.03 92.66 61.96 80.86 67.16 79.5 64.07 92.72 58.24 89.59 51.13 68.94 60.24 81.21 88.05 102.35 78.73 99.22 71.63 85.5 77.68 83.98 74.23"/><polygon class="cls-6" points="107.41 43.28 113.5 57.09 96.44 48.12 93.46 49.43 92.96 49.17 93.14 49.57 90.73 50.63 102.99 78.45 110.42 75.17 104.34 61.37 121.35 70.35 124.38 69.02 124.86 69.27 124.69 68.88 127.06 67.84 114.8 40.02 107.41 43.28"/><circle class="cls-7" cx="41.92" cy="6.58" r="6.58"/></g></g></svg>