<svg xmlns="http://www.w3.org/2000/svg" xmlns:xlink="http://www.w3.org/1999/xlink" viewBox="0 0 111.23 139.42"><defs><style>.cls-1{fill:url(#linear-gradient);}.cls-2{fill:url(#linear-gradient-2);}.cls-3{fill:url(#linear-gradient-3);}.cls-4{fill:url(#linear-gradient-4);}.cls-5{fill:url(#linear-gradient-5);}.cls-6{fill:url(#linear-gradient-6);}.cls-7{fill:url(#linear-gradient-7);}.cls-8{fill:url(#linear-gradient-8);}.cls-9{fill:url(#linear-gradient-9);}.cls-10{fill:url(#linear-gradient-10);}</style><linearGradient id="linear-gradient" x1="3.13" y1="155.94" x2="141.15" y2="-4.21" gradientUnits="userSpaceOnUse"><stop offset="0" stop-color="#29abe2"/><stop offset="1" stop-color="#0071bc"/></linearGradient><linearGradient id="linear-gradient-2" x1="7.55" y1="159.75" x2="145.57" y2="-0.4" xlink:href="#linear-gradient"/><linearGradient id="linear-gradient-3" x1="7.55" y1="159.75" x2="145.57" y2="-0.4" xlink:href="#linear-gradient"/><linearGradient id="linear-gradient-4" x1="-0.99" y1="152.39" x2="137.03" y2="-7.76" xlink:href="#linear-gradient"/><linearGradient id="linear-gradient-5" x1="-0.99" y1="152.39" x2="137.03" y2="-7.76" xlink:href="#linear-gradient"/><linearGradient id="linear-gradient-6" x1="-24.78" y1="131.89" x2="113.25" y2="-28.26" xlink:href="#linear-gradient"/><linearGradient id="linear-gradient-7" x1="-24.24" y1="132.35" x2="113.78" y2="-27.8" xlink:href="#linear-gradient"/><linearGradient id="linear-gradient-8" x1="5.62" y1="158.09" x2="143.64" y2="-2.07" xlink:href="#linear-gradient"/><linearGradient id="linear-gradient-9" x1="5.61" y1="158.09" x2="143.64" y2="-2.07" xlink:href="#linear-gradient"/><linearGradient id="linear-gradient-10" x1="5.62" y1="158.09" x2="143.64" y2="-2.06" xlink:href="#linear-gradient"/></defs><title>Asset 4</title><g id="Layer_2" data-name="Layer 2"><g id="Layer_1-2" data-name="Layer 1"><path class="cls-1" d="M89.06,139.42H22.18A22.21,22.21,0,0,1,0,117.24V72.83A22.2,22.2,0,0,1,22.18,50.66H89.06a22.2,22.2,0,0,1,22.17,22.17v44.41A22.2,22.2,0,0,1,89.06,139.42ZM22.18,57.56A15.29,15.29,0,0,0,6.9,72.83v44.41a15.29,15.29,0,0,0,15.28,15.28H89.06a15.29,15.29,0,0,0,15.27-15.28V72.83A15.29,15.29,0,0,0,89.06,57.56Z"/><path class="cls-2" d="M99.08,96.79h0a1.28,1.28,0,0,1-1.28-1.28V74.38a10,10,0,0,0-10-10H54.68a1.28,1.28,0,0,1-1.29-1.28h0a1.29,1.29,0,0,1,1.29-1.29H87.8a12.57,12.57,0,0,1,12.57,12.57V95.51A1.28,1.28,0,0,1,99.08,96.79Z"/><path class="cls-3" d="M99.08,97.66a2.15,2.15,0,0,1-2.14-2.15V74.38a9.15,9.15,0,0,0-9.14-9.14H54.68a2.15,2.15,0,1,1,0-4.29H87.8a13.44,13.44,0,0,1,13.43,13.43V95.51A2.15,2.15,0,0,1,99.08,97.66Zm-44.4-35a.43.43,0,1,0,0,.85H87.8A10.87,10.87,0,0,1,98.66,74.38V95.51a.43.43,0,0,0,.85,0V74.38A11.72,11.72,0,0,0,87.8,62.67Z"/><path class="cls-4" d="M12.58,93.38h0a1.28,1.28,0,0,1,1.29,1.28V115.8a10,10,0,0,0,10,10H57a1.29,1.29,0,0,1,1.29,1.29h0A1.28,1.28,0,0,1,57,128.36H23.86A12.56,12.56,0,0,1,11.3,115.8V94.66A1.28,1.28,0,0,1,12.58,93.38Z"/><path class="cls-5" d="M57,129.23H23.86A13.44,13.44,0,0,1,10.44,115.8V94.66a2.15,2.15,0,0,1,4.29,0V115.8a9.15,9.15,0,0,0,9.13,9.13H57a2.15,2.15,0,1,1,0,4.3Zm-44.41-35a.42.42,0,0,0-.42.42V115.8a11.72,11.72,0,0,0,11.7,11.7H57a.42.42,0,0,0,.42-.42.42.42,0,0,0-.42-.42H23.86A10.87,10.87,0,0,1,13,115.8V94.66A.42.42,0,0,0,12.58,94.24Z"/><path class="cls-6" d="M26.2,35.82a29.42,29.42,0,0,1,58.83,0V53.4h3V35.82a32.37,32.37,0,0,0-64.74,0V53.4H26.2Z"/><path class="cls-7" d="M91.43,56.85H81.58v-21a26,26,0,0,0-51.93,0v21H19.8v-21a35.82,35.82,0,1,1,71.63,0Z"/><path class="cls-8" d="M67.72,119.23H43a5.87,5.87,0,0,1-5.68-7.34l6.33-24.4.48-.27a11.2,11.2,0,0,1-.92-4.54A12.17,12.17,0,0,1,55.35,70.52c.44,0,.89,0,1.33.07a12.16,12.16,0,0,1,9.92,16.7l.48.27.12.47,6.2,23.85a5.87,5.87,0,0,1-5.68,7.35ZM45.89,89.11,39.8,112.54a3.28,3.28,0,0,0,3.18,4.1H67.72a3.28,3.28,0,0,0,3.17-4.11L64.81,89.11a2.42,2.42,0,0,1-.36-.43,2.53,2.53,0,0,1-.24-2.37,9.68,9.68,0,0,0,.66-4.65,9.57,9.57,0,0,0-8.46-8.49,9.42,9.42,0,0,0-1.06-.06,9.58,9.58,0,0,0-8.86,13.2,2.53,2.53,0,0,1-.24,2.37A3,3,0,0,1,45.89,89.11Z"/><path class="cls-9" d="M55.35,73.06a9.73,9.73,0,0,1,1.07.06,9.6,9.6,0,0,1,7.83,13.2,2.51,2.51,0,0,0,.24,2.33,3,3,0,0,0,.36.43l6.09,23.44a3.33,3.33,0,0,1-3.22,4.17H43a3.33,3.33,0,0,1-3.23-4.17l6.09-23.44a2.54,2.54,0,0,0,.37-.43,2.48,2.48,0,0,0,.23-2.33,9.63,9.63,0,0,1,8.91-13.26m0-2.49a12.12,12.12,0,0,0-11.21,16.7h-.4L37.35,111.9A5.82,5.82,0,0,0,43,119.18H67.72a5.82,5.82,0,0,0,5.63-7.28L67,87.27h-.39a12.12,12.12,0,0,0-9.88-16.63c-.45,0-.89-.07-1.33-.07Z"/><path class="cls-10" d="M67.72,120.47H43a7.11,7.11,0,0,1-6.89-8.9l6.47-24.88a13.22,13.22,0,0,1-.61-4,13.41,13.41,0,0,1,13.4-13.4,14.48,14.48,0,0,1,1.47.08A13.4,13.4,0,0,1,68.14,86.69l6.46,24.88a7.11,7.11,0,0,1-6.88,8.9ZM47,89.73l-6,23.12a2.07,2.07,0,0,0,.37,1.76,2,2,0,0,0,1.61.79H67.72a2,2,0,0,0,2-2.55l-6-23.12a2.42,2.42,0,0,1-.27-.36,3.75,3.75,0,0,1-.36-3.54A8.33,8.33,0,0,0,56.28,74.4c-.31,0-.62-.05-.93-.05a8.33,8.33,0,0,0-7.71,11.48,3.78,3.78,0,0,1-.36,3.54A3.07,3.07,0,0,1,47,89.73Z"/></g></g></svg>